# xmcd
#
# Track frame offsets: 
#        150
#        12835
#        25373
#        38850
#        48975
#        61473
#        72865
#        85431
#        100506
#        114111
#
# Disc length: 1688 seconds
#
# Revision: 0
# Processed by: cddbd v1.5.2PL0 Copyright (c) Steve Scherf et al.
# Submitted via: ExactAudioCopyFreeDBPlugin 1.0
#
DISCID=7706960a
DTITLE=Mike Trask - Jamboree
DYEAR=2012
DGENRE=Blues
TTITLE0=Hi Like U
TTITLE1=The Problem Kid
TTITLE2=Travellin' Man
TTITLE3=Roll Up Yer Sleeves
TTITLE4=The Way We Left It
TTITLE5=The Canary
TTITLE6=Well Jon
TTITLE7=Stuff
TTITLE8=Ain't Blood
TTITLE9=Jump
EXTD=
EXTT0=
EXTT1=
EXTT2=
EXTT3=
EXTT4=
EXTT5=
EXTT6=
EXTT7=
EXTT8=
EXTT9=
PLAYORDER=
